<?xml version="1.0" encoding="utf-8"?>
<!-- Generator: Adobe Illustrator 22.0.1, SVG Export Plug-In . SVG Version: 6.00 Build 0)  -->
<svg version="1.1" id="Warstwa_1" xmlns="http://www.w3.org/2000/svg" xmlns:xlink="http://www.w3.org/1999/xlink" x="0px" y="0px"
	 viewBox="0 0 200 50" style="enable-background:new 0 0 200 50;" xml:space="preserve">
<style type="text/css">
	.st0{fill:none;}
	.st1{enable-background:new    ;}
	.st2{fill:#15213D;}
	.st3{fill:#E94660;}
</style>
<rect x="4.3" y="7.3" class="st0" width="200.1" height="34.2"/>
<g class="st1">
	<path class="st2" d="M17.7,39.2h-3.5V12.3H4.7V9.2h22.5v3.1h-9.5V39.2z"/>
	<path class="st2" d="M50.6,27.9c0,3.7-0.9,6.5-2.8,8.6s-4.4,3.1-7.6,3.1c-2,0-3.8-0.5-5.4-1.4s-2.8-2.3-3.6-4.1s-1.3-3.8-1.3-6.2
		c0-3.7,0.9-6.5,2.7-8.6s4.4-3.1,7.6-3.1c3.1,0,5.6,1,7.5,3.1S50.6,24.4,50.6,27.9z M33.4,27.9c0,2.9,0.6,5.1,1.7,6.6
		s2.8,2.3,5.1,2.3s3.9-0.7,5.1-2.2c1.2-1.5,1.7-3.7,1.7-6.6c0-2.9-0.6-5-1.7-6.5s-2.9-2.2-5.1-2.2c-2.2,0-3.9,0.7-5,2.2
		S33.4,25,33.4,27.9z"/>
</g>
<g class="st1">
	<path class="st3" d="M81,23.9c0,4.9-1.3,8.7-4,11.4c-2.7,2.6-6.6,3.9-11.6,3.9H57v-30h9.2c4.7,0,8.3,1.3,10.9,3.9S81,19.3,81,23.9z
		 M77.3,24c0-3.9-1-6.9-2.9-8.8s-4.9-3-8.7-3h-5.1v24h4.2c4.2,0,7.3-1,9.4-3.1S77.3,28,77.3,24z"/>
	<path class="st3" d="M106.5,27.9c0,3.7-0.9,6.5-2.8,8.6s-4.4,3.1-7.6,3.1c-2,0-3.8-0.5-5.4-1.4s-2.8-2.3-3.6-4.1s-1.3-3.8-1.3-6.2
		c0-3.7,0.9-6.5,2.7-8.6s4.4-3.1,7.6-3.1c3.1,0,5.6,1,7.5,3.1S106.5,24.4,106.5,27.9z M89.4,27.9c0,2.9,0.6,5.1,1.7,6.6
		s2.8,2.3,5.1,2.3s3.9-0.7,5.1-2.2c1.2-1.5,1.7-3.7,1.7-6.6c0-2.9-0.6-5-1.7-6.5s-2.9-2.2-5.1-2.2c-2.2,0-3.9,0.7-5,2.2
		S89.4,25,89.4,27.9z"/>
</g>
<g class="st1">
	<path class="st2" d="M123.9,39.2v-30h3.5V36h13.2v3.2H123.9z"/>
	<path class="st2" d="M144.9,10.6c0-0.8,0.2-1.4,0.6-1.7s0.9-0.5,1.4-0.5c0.5,0,1,0.2,1.4,0.6s0.6,0.9,0.6,1.7s-0.2,1.3-0.6,1.7
		s-0.9,0.6-1.4,0.6c-0.6,0-1.1-0.2-1.4-0.6S144.9,11.4,144.9,10.6z M148.6,39.2h-3.4V16.7h3.4V39.2z"/>
	<path class="st2" d="M170.4,33c0,2.1-0.8,3.7-2.3,4.8s-3.7,1.7-6.6,1.7c-3,0-5.3-0.5-7-1.4V35c1.1,0.5,2.2,1,3.5,1.3
		s2.4,0.5,3.6,0.5c1.8,0,3.1-0.3,4.1-0.9s1.4-1.4,1.4-2.6c0-0.9-0.4-1.6-1.1-2.2s-2.2-1.4-4.4-2.2c-2.1-0.8-3.6-1.5-4.5-2
		c-0.9-0.6-1.5-1.2-2-2c-0.4-0.7-0.6-1.6-0.6-2.6c0-1.8,0.7-3.3,2.2-4.3s3.5-1.6,6.1-1.6c2.4,0,4.8,0.5,7.1,1.5l-1.2,2.8
		c-2.3-0.9-4.3-1.4-6.1-1.4c-1.6,0-2.8,0.3-3.7,0.8s-1.2,1.2-1.2,2.1c0,0.6,0.2,1.1,0.5,1.5s0.8,0.8,1.5,1.2c0.7,0.4,2,0.9,3.9,1.7
		c2.7,1,4.5,1.9,5.4,2.9S170.4,31.6,170.4,33z"/>
	<path class="st2" d="M183.2,36.8c0.6,0,1.2,0,1.7-0.1c0.6-0.1,1-0.2,1.3-0.3V39c-0.4,0.2-0.9,0.3-1.6,0.4c-0.7,0.1-1.4,0.2-1.9,0.2
		c-4.3,0-6.5-2.3-6.5-6.9V19.3h-3.2v-1.6l3.2-1.4l1.4-4.8h2v5.2h6.5v2.6h-6.5v13.2c0,1.4,0.3,2.4,1,3.1S182,36.8,183.2,36.8z"/>
</g>
<g class="st1">
	<path class="st3" d="M190.2,37c0-0.9,0.2-1.6,0.6-2.1c0.4-0.5,1-0.7,1.8-0.7c0.8,0,1.4,0.2,1.9,0.7c0.4,0.5,0.7,1.2,0.7,2.1
		c0,0.9-0.2,1.6-0.7,2.1s-1.1,0.7-1.8,0.7c-0.7,0-1.3-0.2-1.7-0.6C190.5,38.7,190.2,38,190.2,37z"/>
</g>
</svg>
